<svg xmlns="http://www.w3.org/2000/svg">
  <defs>
    <symbol id="icon-push" viewBox="0 0 100 125"><svg xmlns="http://www.w3.org/2000/svg" xmlns:xlink="http://www.w3.org/1999/xlink" version="1.1" x="0px" y="0px" viewBox="0 0 100 125" style="enable-background:new 0 0 100 100;" xml:space="preserve"><style type="text/css">
	.st0{fill:none;}
</style><path class="st0" d="M15.64,33.58c-1.27,0-2.29,3.29-2.29,7.34c0,4.06,1.03,7.34,2.29,7.34c1.11,0,2.04-2.55,2.25-5.93H16.9  c-0.84,0-1.51-0.64-1.51-1.42s0.68-1.42,1.51-1.42h0.98C17.68,36.13,16.75,33.58,15.64,33.58z"/><path class="st0" d="M87.15,33.18c-1.27,0-2.29,3.29-2.29,7.34c0,4.06,1.03,7.34,2.29,7.34c1.27,0,2.29-3.29,2.29-7.34  C89.44,36.47,88.42,33.18,87.15,33.18z"/><g><path d="M49.86,20.95c3.1,0,5.86,1.45,7.65,3.7v-7.76c0-1.29-1.04-2.33-2.33-2.33h-10.5c-1.29,0-2.33,1.04-2.33,2.33v7.58   C44.14,22.32,46.84,20.95,49.86,20.95z"/><path d="M49.72,69.19c-1.6,1.78-3.98,3.52-6.91,4.9c-0.16,0.07-0.31,0.14-0.47,0.21v15.81c0,1.29,1.04,2.33,2.33,2.33h10.5   c1.29,0,2.33-1.04,2.33-2.33V74.48c-0.29-0.13-0.59-0.25-0.88-0.39C53.71,72.71,51.32,70.97,49.72,69.19z"/><path d="M87.19,28.42h-4.17c-2.18,0-3.97,4.88-4.15,11.08h-2c-0.36-1.1-1.38-1.9-2.6-1.9h-1.33c-1.22,0-2.24,0.8-2.6,1.9h-7.87   l-2.69-0.49l-2.27-0.41l-1.48-0.27l-1.94-0.35c0.67-0.39,1.29-0.88,1.82-1.44c0.66-0.69,1.21-1.49,1.61-2.38   c0.47-1.05,0.74-2.2,0.74-3.42s-0.27-2.38-0.74-3.42c-1.31-2.92-4.24-4.97-7.65-4.97c-3.3,0-6.14,1.91-7.51,4.67   c-0.56,1.12-0.88,2.38-0.88,3.71s0.32,2.59,0.88,3.71c0.38,0.77,0.88,1.48,1.47,2.09c0.54,0.56,1.16,1.05,1.84,1.44l-1.94,0.36   l-1.36,0.25l-1.95,0.36l-2.97,0.55h-7.97c-0.36-1.1-1.38-1.9-2.6-1.9h-1.33c-1.22,0-2.24,0.8-2.6,1.9h-2.19h-0.91   c-0.24-6.01-2-10.68-4.14-10.68h-4.17c-2.3,0-4.17,5.42-4.17,12.1c0,6.68,1.87,12.1,4.17,12.1h4.17c2.14,0,3.89-4.67,4.14-10.68   h0.91h2.26c0.1,0.23,0.23,0.43,0.39,0.63c-0.73,1.4-1.26,3.91-1.1,5.5c0.16,1.63,0.83,3.01,1.76,3.87   c0.18,0.16,0.36,0.31,0.55,0.43c0.65,0.42,1.39,0.61,2.14,0.49c0.39-0.06,0.74-0.23,1.08-0.43c1.28-0.34,2.72-1.02,4.14-2.01   c0.98-0.69,1.83-1.45,2.54-2.22l7.86,10.28v0.95c-1.91,0.38-3.95,1.04-5.97,2c-5.11,2.41-8.58,5.93-9.03,8.79   c-0.44,1.03-0.69,2.13-0.64,3.17c0.08,1.6,1,3.49,2.22,5l-1.96,1.44c-1.01,0.74-1.22,2.16-0.48,3.16l0.34,0.47   c0.74,1.01,2.16,1.22,3.16,0.48l4.11-3.03l0.41-0.3l1.3-0.96c1.01-0.74,1.22-2.16,0.48-3.16L36,76.47   c0.01-0.08,0.01-0.16,0.02-0.24c0.03-0.49,0.05-0.97,0.06-1.45c1.98-0.32,4.13-0.97,6.27-1.93c0.14-0.06,0.29-0.12,0.43-0.19   c2.57-1.21,4.72-2.71,6.29-4.26c0.19-0.19,0.38-0.38,0.56-0.57c0.21,0.23,0.44,0.46,0.67,0.69c1.56,1.5,3.66,2.94,6.15,4.12   c0.35,0.17,0.71,0.32,1.07,0.47c1.93,0.81,3.85,1.36,5.63,1.65c0,0.48,0.02,0.96,0.06,1.44c0.01,0.08,0.01,0.17,0.02,0.25   l-0.29,0.39c-0.74,1.01-0.53,2.42,0.48,3.16l1.3,0.96l0.41,0.3l4.11,3.03c1.01,0.74,2.42,0.53,3.16-0.48l0.34-0.47   c0.74-1.01,0.53-2.42-0.48-3.16l-1.96-1.44c1.22-1.51,2.14-3.39,2.22-5c0.05-1.04-0.2-2.14-0.64-3.17   c-0.45-2.86-3.92-6.38-9.03-8.79c-1.78-0.84-3.56-1.45-5.27-1.84v-1.25l7.83-9.99c0.69,0.74,1.51,1.46,2.44,2.11   c1.42,0.99,2.86,1.67,4.14,2.01c0.34,0.2,0.69,0.37,1.08,0.43c0.76,0.12,1.49-0.07,2.14-0.49c0.19-0.12,0.38-0.27,0.55-0.43   c0.92-0.86,1.59-2.23,1.76-3.87c0.16-1.59-0.37-4.1-1.1-5.5c0.15-0.19,0.29-0.4,0.39-0.63h2.1c0.3,5.82,2.03,10.28,4.11,10.28h4.17   c2.3,0,4.17-5.42,4.17-12.1C91.36,33.84,89.49,28.42,87.19,28.42z M16.9,42.34h0.98c-0.21,3.38-1.13,5.93-2.25,5.93   c-1.27,0-2.29-3.29-2.29-7.34c0-4.06,1.03-7.34,2.29-7.34c1.11,0,2.04,2.55,2.25,5.93H16.9c-0.84,0-1.51,0.64-1.51,1.42   S16.07,42.34,16.9,42.34z M87.15,47.87c-1.27,0-2.29-3.29-2.29-7.34c0-4.06,1.03-7.34,2.29-7.34c1.27,0,2.29,3.29,2.29,7.34   C89.44,44.58,88.42,47.87,87.15,47.87z"/></g></svg></symbol>
    <symbol id="icon-pull" viewBox="0 0 100 125"><svg xmlns="http://www.w3.org/2000/svg" xmlns:xlink="http://www.w3.org/1999/xlink" version="1.1" x="0px" y="0px" viewBox="0 0 100 125" style="enable-background:new 0 0 100 100;" xml:space="preserve"><path d="M86.82,45.27h-4.17c-2.13,0-3.89,4.65-4.13,10.65h-5.19c-0.28-0.71-0.83-1.27-1.54-1.55c0.83-2.23,1.67-5.36,1.77-7.45  c0.19-3.66-0.52-6.85-1.7-8.27c0.42-2-0.15-5.33-1.64-8.71c-1.83-4.15-4.44-6.99-6.22-6.95l-9.97-1.81  c2.49-1.46,4.16-4.15,4.16-7.24c0-4.63-3.76-8.39-8.39-8.39s-8.39,3.76-8.39,8.39c0,3.1,1.68,5.79,4.18,7.25L35.72,23  c-1.78-0.17-4.46,2.69-6.34,6.93c-1.49,3.38-2.06,6.72-1.64,8.71c-1.18,1.42-1.89,4.61-1.7,8.27c0.11,2.08,0.95,5.22,1.77,7.45  c-0.7,0.28-1.26,0.84-1.54,1.55h-4.8c-0.25-6-2-10.65-4.13-10.65h-4.17c-2.3,0-4.17,5.42-4.17,12.1s1.87,12.1,4.17,12.1h4.17  c2.13,0,3.89-4.65,4.13-10.65h4.8c0.4,1.02,1.39,1.75,2.56,1.75h1.33c1.16,0,2.15-0.73,2.56-1.75h4.59C37,59.4,36.69,60,36.4,60.62  c-2.28,4.91-2.75,9.64-1.48,12.22c-0.94,2.47-1.53,5.59-1.38,8.46c0.17,3.06,1.35,6.73,2.8,9.53h-3.44c-1.25,0-2.26,1.01-2.26,2.26  v0.58c0,1.25,1.01,2.26,2.26,2.26h7.23c1.25,0,2.26-1.01,2.26-2.26v-0.58c0-0.17-0.02-0.34-0.06-0.5c0.77-3,0.76-8.04,0.55-11.94  c-0.14-2.53-0.48-5.2-1.02-7.41c2.33-1.72,4.69-4.72,6.4-8.41c0.97-2.08,1.61-4.14,1.93-6.01h0.05c0.32,1.87,0.96,3.92,1.93,6.01  c1.71,3.69,4.08,6.69,6.4,8.41c-0.55,2.21-0.88,4.88-1.02,7.41c-0.21,3.9-0.22,8.93,0.55,11.94c-0.04,0.16-0.06,0.33-0.06,0.5v0.58  c0,1.25,1.01,2.26,2.26,2.26h7.23c1.25,0,2.26-1.01,2.26-2.26v-0.58c0-1.25-1.01-2.26-2.26-2.26H64.1c1.45-2.8,2.63-6.48,2.8-9.53  c0.16-2.87-0.43-6-1.38-8.46c1.27-2.57,0.8-7.31-1.48-12.22c-0.29-0.62-0.6-1.21-0.92-1.79h3.77c0.4,1.02,1.39,1.75,2.56,1.75h1.33  c1.16,0,2.15-0.73,2.56-1.75h5.19c0.25,6,2,10.65,4.13,10.65h4.17c2.3,0,4.17-5.42,4.17-12.1S89.12,45.27,86.82,45.27z M50.22,53.99  C50.22,53.99,50.22,53.98,50.22,53.99L50.22,53.99C50.22,53.98,50.22,53.99,50.22,53.99z M17.31,64.71c-1.27,0-2.29-3.29-2.29-7.34  c0-4.06,1.03-7.34,2.29-7.34c1.11,0,2.04,2.53,2.25,5.89h-1.43c-0.79,0-1.43,0.64-1.43,1.43v0.05c0,0.79,0.64,1.43,1.43,1.43h1.43  C19.34,62.18,18.42,64.71,17.31,64.71z M32.73,55.91c-0.19-0.48-0.5-0.88-0.91-1.19c0.67-2.25,1.28-5.9,1.16-8.26  c-0.14-2.75-0.77-5.18-1.63-6.75c1.46-1.12,3.06-3.32,4.31-6.14c0.02-0.05,0.04-0.09,0.06-0.14l6.7,8.76v9.45  c0,0.27,0.05,0.52,0.14,0.76c-1.14,0.89-2.29,2.08-3.36,3.5H32.73z M57.53,52.14c0.03-0.16,0.05-0.32,0.05-0.49V41.44l6.3-8.04  c0.03,0.06,0.05,0.12,0.07,0.18c1.25,2.82,2.85,5.03,4.31,6.14c-0.86,1.57-1.49,3.99-1.63,6.75c-0.12,2.36,0.5,6.01,1.16,8.26  c-0.4,0.3-0.72,0.71-0.91,1.19h-5.64C60.06,54.34,58.79,53.05,57.53,52.14z M86.78,64.71c-1.27,0-2.29-3.29-2.29-7.34  c0-4.06,1.03-7.34,2.29-7.34c1.27,0,2.29,3.29,2.29,7.34C89.07,61.43,88.04,64.71,86.78,64.71z"/></svg></symbol>
    <symbol id="icon-legs" viewBox="0 0 100 125"><svg xmlns="http://www.w3.org/2000/svg" xmlns:xlink="http://www.w3.org/1999/xlink" version="1.1" x="0px" y="0px" viewBox="0 0 100 125" style="enable-background:new 0 0 100 100;" xml:space="preserve"><path d="M86.82,25h-4.17c-2.14,0-3.89,4.67-4.14,10.68h-3.13c-0.35-1.12-1.38-1.93-2.61-1.93h-1.33c-1.23,0-2.26,0.82-2.61,1.93  h-9.44c-0.19,0-0.36,0.1-0.45,0.26l-1.02,1.79c-0.2,0.35,0.05,0.78,0.45,0.78h10.56c0.31,0.7,0.9,1.23,1.63,1.48  c-0.35,1.07-0.71,2.58-0.96,4.15c-1.56-1.75-3.14-2.87-4.36-3.09c-0.19-0.08-0.38-0.14-0.59-0.14h0.28l-10.69-1.94  c2.49-1.46,4.16-4.15,4.16-7.24c0-4.63-3.76-8.39-8.39-8.39s-8.39,3.76-8.39,8.39c0,3.1,1.68,5.79,4.18,7.25l-10.27,1.89l-0.16,0.04  c-0.29,0-0.55,0.09-0.8,0.24c-1.13,0.39-2.49,1.41-3.84,2.91c-0.21-1.52-0.51-3.02-0.82-4.16c0.64-0.27,1.14-0.77,1.43-1.39h10.34  c0.41,0,0.66-0.46,0.44-0.8l-1.14-1.79c-0.1-0.15-0.26-0.24-0.44-0.24h-9.07c-0.34-1.13-1.38-1.96-2.62-1.96h-1.33  c-1.24,0-2.28,0.83-2.62,1.96h-3.41c-0.24-6.01-2-10.68-4.14-10.68h-4.17c-2.3,0-4.17,5.42-4.17,12.1s1.87,12.1,4.17,12.1h4.17  c2.14,0,3.89-4.67,4.14-10.68h3.54c0.22,0.48,0.58,0.89,1.02,1.17c-0.88,1.96-1.8,5.91-1.94,8.54c-0.2,3.86,0.61,7.2,1.9,8.48  c0.09,0.15,0.2,0.28,0.33,0.38c1.56,1.26,5.09-1.25,7.88-5.61c0.3-0.46,0.57-0.92,0.82-1.39l7.38,9.65v1.94  c-0.35-0.22-0.7-0.43-1.06-0.63c-5.18-2.92-10.33-3.65-12.79-2.07c-2.33,1.31-4.55,7.43-4.26,12.72c0.16,2.88,1.21,6.3,2.54,9.03  h-3.48c-1.25,0-2.26,1.01-2.26,2.26v0.58c0,1.25,1.01,2.26,2.26,2.26h7.23c1.15,0,2.09-0.86,2.23-1.97  c1.04-2.81,1.05-8.5,0.82-12.81c0-0.06-0.01-0.12-0.01-0.17c0.81,0.58,1.67,1.14,2.58,1.66c6.31,3.56,12.58,3.87,14,0.7  c0.03-0.07,0.05-0.15,0.07-0.22c1.44,3.15,7.69,2.83,13.99-0.72c0.92-0.52,1.78-1.08,2.58-1.66c0,0.06-0.01,0.12-0.01,0.17  c-0.24,4.31-0.22,10,0.82,12.81c0.15,1.11,1.08,1.97,2.23,1.97h7.23c1.25,0,2.26-1.01,2.26-2.26v-0.58c0-1.25-1.01-2.26-2.26-2.26  h-3.48c1.33-2.73,2.39-6.16,2.54-9.03c0.29-5.28-1.94-11.41-4.26-12.72c-2.47-1.59-7.61-0.86-12.79,2.07  c-0.54,0.3-1.05,0.62-1.55,0.95v-2.27l7.53-9.61c0.29,0.54,0.61,1.09,0.96,1.64c2.8,4.36,6.33,6.87,7.88,5.61  c0.13-0.1,0.23-0.24,0.33-0.38c1.3-1.28,2.1-4.62,1.9-8.48c-0.13-2.41-1.22-6.22-2.16-8.42c0.56-0.29,1-0.75,1.26-1.32h3.23  c0.24,6.01,2,10.68,4.14,10.68h4.17c2.3,0,4.17-5.42,4.17-12.1S89.12,25,86.82,25z M17.31,44.45c-1.27,0-2.29-3.29-2.29-7.34  s1.03-7.34,2.29-7.34c1.11,0,2.04,2.55,2.25,5.93h-1.13c-0.78,0-1.42,0.64-1.42,1.42s0.64,1.42,1.42,1.42h1.13  C19.35,41.9,18.42,44.45,17.31,44.45z M86.78,44.45c-1.27,0-2.29-3.29-2.29-7.34c0-4.06,1.03-7.34,2.29-7.34  c1.27,0,2.29,3.29,2.29,7.34C89.07,41.16,88.04,44.45,86.78,44.45z"/></svg></symbol>
  </defs>
</svg>