<svg xmlns="http://www.w3.org/2000/svg" xmlns:xlink="http://www.w3.org/1999/xlink" version="1.1" x="0px" y="0px" viewBox="0 0 100 125" style="enable-background:new 0 0 100 100;" xml:space="preserve"><path d="M86.82,25h-4.17c-2.14,0-3.89,4.67-4.14,10.68h-3.13c-0.35-1.12-1.38-1.93-2.61-1.93h-1.33c-1.23,0-2.26,0.82-2.61,1.93  h-9.44c-0.19,0-0.36,0.1-0.45,0.26l-1.02,1.79c-0.2,0.35,0.05,0.78,0.45,0.78h10.56c0.31,0.7,0.9,1.23,1.63,1.48  c-0.35,1.07-0.71,2.58-0.96,4.15c-1.56-1.75-3.14-2.87-4.36-3.09c-0.19-0.08-0.38-0.14-0.59-0.14h0.28l-10.69-1.94  c2.49-1.46,4.16-4.15,4.16-7.24c0-4.63-3.76-8.39-8.39-8.39s-8.39,3.76-8.39,8.39c0,3.1,1.68,5.79,4.18,7.25l-10.27,1.89l-0.16,0.04  c-0.29,0-0.55,0.09-0.8,0.24c-1.13,0.39-2.49,1.41-3.84,2.91c-0.21-1.52-0.51-3.02-0.82-4.16c0.64-0.27,1.14-0.77,1.43-1.39h10.34  c0.41,0,0.66-0.46,0.44-0.8l-1.14-1.79c-0.1-0.15-0.26-0.24-0.44-0.24h-9.07c-0.34-1.13-1.38-1.96-2.62-1.96h-1.33  c-1.24,0-2.28,0.83-2.62,1.96h-3.41c-0.24-6.01-2-10.68-4.14-10.68h-4.17c-2.3,0-4.17,5.42-4.17,12.1s1.87,12.1,4.17,12.1h4.17  c2.14,0,3.89-4.67,4.14-10.68h3.54c0.22,0.48,0.58,0.89,1.02,1.17c-0.88,1.96-1.8,5.91-1.94,8.54c-0.2,3.86,0.61,7.2,1.9,8.48  c0.09,0.15,0.2,0.28,0.33,0.38c1.56,1.26,5.09-1.25,7.88-5.61c0.3-0.46,0.57-0.92,0.82-1.39l7.38,9.65v1.94  c-0.35-0.22-0.7-0.43-1.06-0.63c-5.18-2.92-10.33-3.65-12.79-2.07c-2.33,1.31-4.55,7.43-4.26,12.72c0.16,2.88,1.21,6.3,2.54,9.03  h-3.48c-1.25,0-2.26,1.01-2.26,2.26v0.58c0,1.25,1.01,2.26,2.26,2.26h7.23c1.15,0,2.09-0.86,2.23-1.97  c1.04-2.81,1.05-8.5,0.82-12.81c0-0.06-0.01-0.12-0.01-0.17c0.81,0.58,1.67,1.14,2.58,1.66c6.31,3.56,12.58,3.87,14,0.7  c0.03-0.07,0.05-0.15,0.07-0.22c1.44,3.15,7.69,2.83,13.99-0.72c0.92-0.52,1.78-1.08,2.58-1.66c0,0.06-0.01,0.12-0.01,0.17  c-0.24,4.31-0.22,10,0.82,12.81c0.15,1.11,1.08,1.97,2.23,1.97h7.23c1.25,0,2.26-1.01,2.26-2.26v-0.58c0-1.25-1.01-2.26-2.26-2.26  h-3.48c1.33-2.73,2.39-6.16,2.54-9.03c0.29-5.28-1.94-11.41-4.26-12.72c-2.47-1.59-7.61-0.86-12.79,2.07  c-0.54,0.3-1.05,0.62-1.55,0.95v-2.27l7.53-9.61c0.29,0.54,0.61,1.09,0.96,1.64c2.8,4.36,6.33,6.87,7.88,5.61  c0.13-0.1,0.23-0.24,0.33-0.38c1.3-1.28,2.1-4.62,1.9-8.48c-0.13-2.41-1.22-6.22-2.16-8.42c0.56-0.29,1-0.75,1.26-1.32h3.23  c0.24,6.01,2,10.68,4.14,10.68h4.17c2.3,0,4.17-5.42,4.17-12.1S89.12,25,86.82,25z M17.31,44.45c-1.27,0-2.29-3.29-2.29-7.34  s1.03-7.34,2.29-7.34c1.11,0,2.04,2.55,2.25,5.93h-1.13c-0.78,0-1.42,0.64-1.42,1.42s0.64,1.42,1.42,1.42h1.13  C19.35,41.9,18.42,44.45,17.31,44.45z M86.78,44.45c-1.27,0-2.29-3.29-2.29-7.34c0-4.06,1.03-7.34,2.29-7.34  c1.27,0,2.29,3.29,2.29,7.34C89.07,41.16,88.04,44.45,86.78,44.45z"/></svg>