<svg xmlns="http://www.w3.org/2000/svg" xmlns:xlink="http://www.w3.org/1999/xlink" version="1.1" x="0px" y="0px" viewBox="0 0 100 125" style="enable-background:new 0 0 100 100;" xml:space="preserve"><path d="M86.82,45.27h-4.17c-2.13,0-3.89,4.65-4.13,10.65h-5.19c-0.28-0.71-0.83-1.27-1.54-1.55c0.83-2.23,1.67-5.36,1.77-7.45  c0.19-3.66-0.52-6.85-1.7-8.27c0.42-2-0.15-5.33-1.64-8.71c-1.83-4.15-4.44-6.99-6.22-6.95l-9.97-1.81  c2.49-1.46,4.16-4.15,4.16-7.24c0-4.63-3.76-8.39-8.39-8.39s-8.39,3.76-8.39,8.39c0,3.1,1.68,5.79,4.18,7.25L35.72,23  c-1.78-0.17-4.46,2.69-6.34,6.93c-1.49,3.38-2.06,6.72-1.64,8.71c-1.18,1.42-1.89,4.61-1.7,8.27c0.11,2.08,0.95,5.22,1.77,7.45  c-0.7,0.28-1.26,0.84-1.54,1.55h-4.8c-0.25-6-2-10.65-4.13-10.65h-4.17c-2.3,0-4.17,5.42-4.17,12.1s1.87,12.1,4.17,12.1h4.17  c2.13,0,3.89-4.65,4.13-10.65h4.8c0.4,1.02,1.39,1.75,2.56,1.75h1.33c1.16,0,2.15-0.73,2.56-1.75h4.59C37,59.4,36.69,60,36.4,60.62  c-2.28,4.91-2.75,9.64-1.48,12.22c-0.94,2.47-1.53,5.59-1.38,8.46c0.17,3.06,1.35,6.73,2.8,9.53h-3.44c-1.25,0-2.26,1.01-2.26,2.26  v0.58c0,1.25,1.01,2.26,2.26,2.26h7.23c1.25,0,2.26-1.01,2.26-2.26v-0.58c0-0.17-0.02-0.34-0.06-0.5c0.77-3,0.76-8.04,0.55-11.94  c-0.14-2.53-0.48-5.2-1.02-7.41c2.33-1.72,4.69-4.72,6.4-8.41c0.97-2.08,1.61-4.14,1.93-6.01h0.05c0.32,1.87,0.96,3.92,1.93,6.01  c1.71,3.69,4.08,6.69,6.4,8.41c-0.55,2.21-0.88,4.88-1.02,7.41c-0.21,3.9-0.22,8.93,0.55,11.94c-0.04,0.16-0.06,0.33-0.06,0.5v0.58  c0,1.25,1.01,2.26,2.26,2.26h7.23c1.25,0,2.26-1.01,2.26-2.26v-0.58c0-1.25-1.01-2.26-2.26-2.26H64.1c1.45-2.8,2.63-6.48,2.8-9.53  c0.16-2.87-0.43-6-1.38-8.46c1.27-2.57,0.8-7.31-1.48-12.22c-0.29-0.62-0.6-1.21-0.92-1.79h3.77c0.4,1.02,1.39,1.75,2.56,1.75h1.33  c1.16,0,2.15-0.73,2.56-1.75h5.19c0.25,6,2,10.65,4.13,10.65h4.17c2.3,0,4.17-5.42,4.17-12.1S89.12,45.27,86.82,45.27z M50.22,53.99  C50.22,53.99,50.22,53.98,50.22,53.99L50.22,53.99C50.22,53.98,50.22,53.99,50.22,53.99z M17.31,64.71c-1.27,0-2.29-3.29-2.29-7.34  c0-4.06,1.03-7.34,2.29-7.34c1.11,0,2.04,2.53,2.25,5.89h-1.43c-0.79,0-1.43,0.64-1.43,1.43v0.05c0,0.79,0.64,1.43,1.43,1.43h1.43  C19.34,62.18,18.42,64.71,17.31,64.71z M32.73,55.91c-0.19-0.48-0.5-0.88-0.91-1.19c0.67-2.25,1.28-5.9,1.16-8.26  c-0.14-2.75-0.77-5.18-1.63-6.75c1.46-1.12,3.06-3.32,4.31-6.14c0.02-0.05,0.04-0.09,0.06-0.14l6.7,8.76v9.45  c0,0.27,0.05,0.52,0.14,0.76c-1.14,0.89-2.29,2.08-3.36,3.5H32.73z M57.53,52.14c0.03-0.16,0.05-0.32,0.05-0.49V41.44l6.3-8.04  c0.03,0.06,0.05,0.12,0.07,0.18c1.25,2.82,2.85,5.03,4.31,6.14c-0.86,1.57-1.49,3.99-1.63,6.75c-0.12,2.36,0.5,6.01,1.16,8.26  c-0.4,0.3-0.72,0.71-0.91,1.19h-5.64C60.06,54.34,58.79,53.05,57.53,52.14z M86.78,64.71c-1.27,0-2.29-3.29-2.29-7.34  c0-4.06,1.03-7.34,2.29-7.34c1.27,0,2.29,3.29,2.29,7.34C89.07,61.43,88.04,64.71,86.78,64.71z"/></svg>